<svg width="28" height="28" viewBox="0 0 28 28" fill="none" xmlns="http://www.w3.org/2000/svg">
<path d="M3.00002 7C4.65687 7 6.00002 5.433 6.00002 3.5C6.00002 1.567 4.65687 0 3.00002 0C1.34316 0 1.52588e-05 1.567 1.52588e-05 3.5C1.52588e-05 5.433 1.34316 7 3.00002 7Z" fill="#1F1F1F"/>
<path d="M9.60491 9.4582V27.9985H15.4989V18.8299C15.4989 16.4106 15.9649 14.0677 19.0362 14.0677C22.0653 14.0677 22.1029 16.8337 22.1029 18.9826V28H28V17.8326C28 12.8382 26.8991 9 20.9222 9C18.0526 9 16.1291 10.538 15.3425 11.9936H15.2628V9.4582H9.60491ZM0 9.4582H5.90338V27.9985H0V9.4582Z" fill="#1F1F1F"/>
</svg>
