<svg width="110" height="20" viewBox="0 0 110 20" fill="none" xmlns="http://www.w3.org/2000/svg">
<path d="M50.7949 9.37615V19.7351H53.7442V10.0854C53.7442 9.27043 54.405 8.60964 55.22 8.60964H58.2685V5.69775H54.4755C52.4425 5.69775 50.7949 7.34312 50.7949 9.37615Z" fill="#114455"/>
<path d="M12.5903 5.39209C9.21582 5.39209 6.6079 7.85464 6.6079 10.9273V15.4471C6.59689 15.6828 6.48896 15.9207 6.35901 16.1299C6.02421 16.674 5.46694 16.9824 4.83038 16.9824H4.80174C4.17179 16.9824 3.5925 16.6453 3.27972 16.0991L3.22245 15.9978C3.0969 15.7797 3.03082 15.533 3.03082 15.2819V14.8106H3.03303V5.70266H0.00220263V13.4251H0V15.0991C0 15.9295 0.220263 16.7467 0.634359 17.4603L0.682817 17.5462C1.52202 18.9978 3.08149 19.881 4.75989 19.9052C4.78412 19.9052 4.80835 19.9052 4.83258 19.9052C6.48235 19.9052 7.98014 19.0704 8.84798 17.6652C9.12772 17.2114 9.33917 16.7136 9.45811 16.1982C9.5352 15.8634 9.55723 15.5176 9.55723 15.174V11.3216C9.55723 10.1278 10.1343 8.09032 12.5903 8.09032C14.2202 8.09032 15.2863 9.29736 15.2863 11.3216V19.7202H18.2929V10.9273C18.2929 7.63878 15.6806 5.39209 12.5903 5.39209Z" fill="#114455"/>
<path d="M26.4867 16.6279L22.7577 5.70508H19.6123L24.2599 18.3416C24.6013 19.2689 25.4845 19.8856 26.4735 19.8856C27.4603 19.8856 28.3435 19.2711 28.685 18.346L33.3611 5.70508H30.1872L26.4867 16.6279Z" fill="#114455"/>
<path d="M41.2642 5.39209C37.1056 5.39209 34.3545 8.53745 34.3545 12.696C34.3545 16.826 37.1078 20 41.2642 20C45.4205 20 48.1738 16.826 48.1738 12.696C48.1738 8.53965 45.4205 5.39209 41.2642 5.39209ZM41.2642 17.2467C39.0175 17.2467 37.3038 15.3083 37.3038 12.696C37.3038 10.0551 39.0175 8.14538 41.2642 8.14538C43.5395 8.14538 45.2245 10.0551 45.2245 12.696C45.2245 15.3083 43.5395 17.2467 41.2642 17.2467Z" fill="#114455"/>
<path d="M1.50684 3.0088H1.53107C2.36146 3.0088 3.03547 2.33479 3.03547 1.5044C3.03547 0.674006 2.36146 0 1.53107 0H1.50684C0.676448 0 0.00244141 0.674006 0.00244141 1.5044C0.00244141 2.33479 0.676448 3.0088 1.50684 3.0088Z" fill="#114455"/>
<path d="M62.2026 3.0088H62.2269C63.0573 3.0088 63.7313 2.33479 63.7313 1.5044C63.7313 0.674006 63.0573 0 62.2269 0H62.2026C61.3722 0 60.6982 0.674006 60.6982 1.5044C60.6982 2.33479 61.3722 3.0088 62.2026 3.0088Z" fill="#114455"/>
<path d="M108.162 16.7617H108.138C107.308 16.7617 106.634 17.4357 106.634 18.2661C106.634 19.0965 107.308 19.7705 108.138 19.7705H108.162C108.993 19.7705 109.667 19.0965 109.667 18.2661C109.667 17.4357 108.993 16.7617 108.162 16.7617Z" fill="#114455"/>
<path d="M98.3832 5.39209C96.5947 5.39209 95.0286 6.08812 93.9449 7.19384C92.8898 6.05949 91.3568 5.39209 89.6762 5.39209C86.3018 5.39209 83.6938 7.85463 83.6938 10.9251V19.718H86.6432V11.3216C86.6432 10.1278 87.2203 8.09032 89.6762 8.09032C91.3062 8.09032 92.3722 9.29736 92.3722 11.3216V19.7202H92.4009H95.3502H95.3788V10.9273C95.3788 10.9097 95.3766 10.8943 95.3766 10.8766C95.511 9.68282 96.2114 8.09032 98.3832 8.09032C100.013 8.09032 101.079 9.29736 101.079 11.3216V19.7202H104.086V10.9273C104.086 7.63878 101.474 5.39209 98.3832 5.39209Z" fill="#114455"/>
<path d="M74.843 5.36377C70.8077 5.36377 68.2284 8.46728 68.2152 12.7206H68.213V14.7162C68.213 15.2294 68.0302 15.7294 67.6998 16.1236C67.2835 16.6192 66.6734 16.9034 66.0258 16.9056H66.0236C65.376 16.9056 64.7659 16.6214 64.3474 16.1236C64.0148 15.7294 63.8342 15.2294 63.8342 14.714V10.6126H63.832V5.69416H60.8452V14.78H60.8496C60.865 15.9739 61.2946 17.1324 62.0677 18.0487C63.0545 19.2205 64.4972 19.8901 66.0258 19.8901H66.0302C67.5633 19.8879 69.006 19.2139 69.9906 18.0421C70.0126 18.0157 70.0324 17.9849 70.0544 17.9562C71.2416 19.236 72.9487 19.9694 75.0126 19.9694C77.4289 19.9694 79.5632 18.8725 80.5456 17.1611L78.2989 15.7844C77.7086 16.6545 76.6689 17.3857 75.1249 17.3857C72.8782 17.3857 71.4179 16.0091 71.1073 13.6214H80.9398C81.4729 8.9871 79.3099 5.36377 74.843 5.36377ZM71.1337 11.432C71.4994 9.29767 72.8187 7.92103 74.8694 7.92103C77.1733 7.92103 78.2681 9.71838 78.2681 11.432H71.1337Z" fill="#114455"/>
</svg>
